# xmcd
#
# Track frame offsets:
#	150
#	10668
#	21510
#	33174
#	44696
#	55447
#	66701
#	77708
#	85091
#	92939
#	103515
#	115228
#	128286
#	137835
#	150568
#	163698
#	176454
#
# Disc length: 2483 seconds
#
# Revision: 0
# Processed by: cddbd v1.5.2PL0 Copyright (c) Steve Scherf et al.
# Submitted via: EasyCDDAExtractor 10.2.0.1
#
DISCID=dd09b111
DTITLE=The Johnson Sisters - Sweethearts Of Gospel Music
DYEAR=1997
DGENRE=Gospel
TTITLE0=He Is There
TTITLE1=If You Want Joy
TTITLE2=Caravan Medley
TTITLE3=Because Of Him
TTITLE4=Win The Lost At Any Cost
TTITLE5=He'll Pilot Me
TTITLE6=Close To The Master
TTITLE7=Uncloudy Day
TTITLE8=Great Day
TTITLE9=More Than All
TTITLE10=My Only Hope
TTITLE11=In The Garden
TTITLE12=This Little Light Of Mine
TTITLE13=If You Know The Lord
TTITLE14=I Just Steal Away And Pray
TTITLE15=Pass Me Not
TTITLE16=I Want To Be More Like Jesus
EXTD=
EXTT0=
EXTT1=
EXTT2=
EXTT3=
EXTT4=
EXTT5=
EXTT6=
EXTT7=
EXTT8=
EXTT9=
EXTT10=
EXTT11=
EXTT12=
EXTT13=
EXTT14=
EXTT15=
EXTT16=
PLAYORDER=
